<?xml version="1.0" encoding="utf-8"?>
<!-- Generator: Adobe Illustrator 23.0.3, SVG Export Plug-In . SVG Version: 6.00 Build 0)  -->
<svg version="1.1" id="Layer_1" xmlns="http://www.w3.org/2000/svg" xmlns:xlink="http://www.w3.org/1999/xlink" x="0px" y="0px"
	 viewBox="0 0 103.7 132.8" style="enable-background:new 0 0 103.7 132.8;" xml:space="preserve">
<style type="text/css">
	.st0{fill:#FFBA31;}
	.st1{fill:#EB9C13;}
</style>
<circle class="st0" cx="51.8" cy="56.8" r="51.8"/>
<polygon class="st0" points="74.2,132.8 29.4,132.8 40.9,107.3 62.8,107.5 "/>
<g>
	<path class="st1" d="M70.2,9.3C70.2,9.3,70.2,9.3,70.2,9.3C70.2,9.2,70.1,9.3,70.2,9.3z"/>
	<path class="st1" d="M79.3,7.4l0.2,0l-0.4-0.2c-0.1-0.1-0.2-0.3-0.3-0.4c-0.1,0-0.2,0.1-0.3,0.1l-9-4.4c-8.6,0.6-6.8,4.4-6.8,4.4
		l8.1,2.3c-0.4,0.1-0.6,0.1-0.7,0c2.5,6.4-2.2,29.3-16.1,43.1C40.7,65.6,19,76.7,1.7,73.6c0,0,2.1,6.7,4.5,10.5
		c13.4,0.2,36.7-4.9,54.7-22.7C77.3,46.5,84.7,16.2,79.3,7.4z M71.4,9.1c-0.2,0-0.3,0.1-0.4,0.1L71.4,9.1z"/>
</g>
<path class="st1" d="M101.9,70.4c-5,3.5-20.8,12.9-35.6,15.5l-0.9,8.7c0,0,24.8-2.9,32.7-13.7C99.3,76.8,99.5,77.7,101.9,70.4z"/>
</svg>
